<svg width="50" height="50" viewBox="0 0 60 60" fill="none" xmlns="http://www.w3.org/2000/svg">
<path d="M51.2643 48.6682L53.7026 46.2299L44.1982 36.7255L41.7599 39.1638L51.2643 48.6682Z" fill="white"/>
<path d="M40.3612 41.4194L46.4569 35.3237L11.7052 0.665869L5 0.0563965L5.60947 6.76157L40.3612 41.4194Z" fill="white"/>
<path d="M52.4139 49.9624C53.8422 49.9624 55.0001 48.8045 55.0001 47.3762C55.0001 45.9479 53.8422 44.79 52.4139 44.79C50.9855 44.79 49.8276 45.9479 49.8276 47.3762C49.8276 48.8045 50.9855 49.9624 52.4139 49.9624Z" fill="white"/>
<path d="M8.7385 48.6656L18.2429 39.1611L15.8046 36.7228L6.30018 46.2272L8.7385 48.6656Z" fill="white"/>
<path d="M20.0388 41.0193L13.9431 34.9228L48.2949 0.665869L55 0.0563965L54.3906 6.76157L20.0388 41.0193Z" fill="white"/>
<path d="M18.0775 37.8409C17.7289 37.8408 17.4146 37.6309 17.2812 37.3087C17.1478 36.9866 17.2215 36.6159 17.468 36.3694L25.9422 27.8951C26.2797 27.5637 26.8212 27.5661 27.1557 27.9006C27.4902 28.2351 27.4926 28.7766 27.1612 29.1141L18.6871 37.5883C18.5255 37.7503 18.3062 37.8412 18.0775 37.8409Z" fill="white"/>
<path d="M41.9224 37.8408C41.6937 37.8411 41.4744 37.7502 41.313 37.5883L37.1491 33.4244C36.8176 33.0869 36.8201 32.5454 37.1546 32.211C37.489 31.8765 38.0305 31.874 38.368 32.2055L42.5319 36.3693C42.7784 36.6159 42.8521 36.9866 42.7187 37.3087C42.5853 37.6307 42.2711 37.8407 41.9224 37.8408Z" fill="white"/>
<path d="M7.58623 49.9624C9.01457 49.9624 10.1725 48.8045 10.1725 47.3762C10.1725 45.9479 9.01457 44.79 7.58623 44.79C6.15789 44.79 5 45.9479 5 47.3762C5 48.8045 6.15789 49.9624 7.58623 49.9624Z" fill="white"/>
<path d="M14.3739 33.2744L21.6889 40.5894C22.3622 41.2627 22.3622 42.3544 21.6889 43.0276C21.0156 43.701 19.924 43.701 19.2506 43.0276L11.9357 35.7127C11.2623 35.0394 11.2623 33.9478 11.9357 33.2744C12.609 32.6011 13.7006 32.6011 14.3739 33.2744Z" fill="white"/>
<path d="M48.0644 35.711L40.7494 43.0259C40.0761 43.6993 38.9845 43.6993 38.3112 43.0259C37.6378 42.3526 37.6378 41.261 38.3112 40.5876L45.6261 33.2727C46.2994 32.5994 47.391 32.5994 48.0644 33.2727C48.7376 33.946 48.7376 35.0376 48.0644 35.711Z" fill="white"/>
</svg>
