<svg width="50" height="50" viewBox="0 0 50 50" fill="none" xmlns="http://www.w3.org/2000/svg">
<path d="M36.7283 35.3906C37.8904 35.1172 39.0232 34.7266 40.1169 34.1992L48.2517 35.8105C49.2771 36.0156 50.1755 35.1074 49.9705 34.082L48.3591 26.0449C49.4431 23.7598 49.99 21.2988 49.99 18.7402C49.99 9.31641 42.2751 1.65039 32.8025 1.65039C26.1814 1.65039 20.2732 5.45898 17.4509 11.2207C29.9705 11.4355 39.3357 23.0371 36.7283 35.3906Z" fill="white"/>
<path d="M16.8651 12.6562C5.50772 13.2031 -2.17782 24.4922 1.47452 35.2246H1.42569C1.63077 35.8398 1.87491 36.4453 2.15811 37.0312L0.546786 45.0586C0.361239 45.9668 1.0546 46.8066 1.98233 46.8066C2.18741 46.8066 1.49405 46.9336 10.4003 45.1758C12.6855 46.2598 15.1269 46.8066 17.6855 46.8066C27.0995 46.7969 34.746 39.1309 34.746 29.7168C34.746 20.0293 26.6308 12.207 16.8651 12.6562ZM21.6796 33.4082H8.35929C7.65616 33.4082 7.08975 32.8418 7.08975 32.1387C7.08975 31.4355 7.65616 30.8691 8.35929 30.8691H21.6796C22.3827 30.8691 22.9491 31.4355 22.9491 32.1387C22.9491 32.8418 22.3827 33.4082 21.6796 33.4082ZM26.914 28.584H8.35929C7.65616 28.584 7.08975 28.0176 7.08975 27.3144C7.08975 26.6113 7.65616 26.0449 8.35929 26.0449H26.914C27.6171 26.0449 28.1835 26.6113 28.1835 27.3144C28.1835 28.0176 27.6073 28.584 26.914 28.584Z" fill="white"/>
</svg>
