<svg width="51" height="47" viewBox="0 0 51 47" fill="none" xmlns="http://www.w3.org/2000/svg">
<path d="M44.6333 19.3118C44.82 16.892 42.6889 12.2541 41.6 10.2375C39.1733 10.2375 34.9888 13.8052 33.2 15.589L35.3 23.9653C38.3333 23.4224 44.4466 21.7316 44.6333 19.3118Z" fill="#DCDFE4"/>
<path d="M6.14479 19.3118C5.95812 16.892 8.08924 12.2541 9.17812 10.2375C11.6048 10.2375 15.7892 13.8052 17.5781 15.589L15.4781 23.9653C12.4448 23.4224 6.33146 21.7316 6.14479 19.3118Z" fill="#DCDFE4"/>
<path d="M10.7108 42.0115C9.18419 29.4525 3.28973 16.7984 0.533325 12.0412C4.34988 13.3098 11.983 17.9084 15.9586 20.1284C17.2308 12.5169 22.8496 3.84823 25.5 0.465332V42.0115H10.7108Z" fill="white"/>
<path d="M40.2892 42.0115C41.8158 29.4525 47.7103 16.7984 50.4667 12.0412C46.6501 13.3098 39.017 17.9084 35.0414 20.1284C33.7692 12.5169 28.1504 3.84823 25.5 0.465332V42.0115H40.2892Z" fill="white"/>
<rect x="10.8" y="42.8119" width="29.4" height="3.72277" fill="white"/>
</svg>
