<svg width="50" height="51" viewBox="0 0 50 51" fill="none" xmlns="http://www.w3.org/2000/svg">
<path d="M48.6515 22.4626C48.6503 22.4615 48.6492 22.4603 48.648 22.4592L28.252 1.98232C27.3826 1.10909 26.2268 0.628052 24.9973 0.628052C23.7678 0.628052 22.6119 1.10871 21.7422 1.98194L1.35683 22.4485C1.34997 22.4554 1.3431 22.4626 1.33623 22.4695C-0.449045 24.2723 -0.445994 27.1972 1.34501 28.9954C2.16326 29.8173 3.24396 30.2934 4.39944 30.3431C4.44636 30.3477 4.49366 30.35 4.54134 30.35H5.35425V45.4198C5.35425 48.4018 7.77086 50.828 10.7418 50.828H18.7213C19.5301 50.828 20.1862 50.1697 20.1862 49.3573V37.5427C20.1862 36.1819 21.2886 35.0751 22.644 35.0751H27.3506C28.7059 35.0751 29.8084 36.1819 29.8084 37.5427V49.3573C29.8084 50.1697 30.4641 50.828 31.2732 50.828H39.2528C42.2237 50.828 44.6403 48.4018 44.6403 45.4198V30.35H45.3941C46.6232 30.35 47.779 29.8694 48.6492 28.9961C50.4421 27.1949 50.4428 24.265 48.6515 22.4626Z" fill="white"/>
</svg>
