<svg width="50" height="51" viewBox="0 0 46 51" fill="none" xmlns="http://www.w3.org/2000/svg">
<path d="M26.1641 34.0125C25.5098 33.3751 24.5234 32.1692 24.4062 30.5808C23.9863 30.7965 23.5078 30.924 23 30.924C22.9316 30.924 22.8535 30.924 22.7852 30.9142V41.1797C22.8535 41.1797 22.9316 41.1699 23 41.1699C24.0547 41.1699 25.0605 41.3856 25.9687 41.7876L26.6523 35.3851C26.7109 34.8851 26.5352 34.3752 26.1641 34.0125Z" fill="white"/>
<path d="M25.9688 41.7974L26.6523 35.3949C25.5781 37.1892 24.2207 36.8558 23.498 36.5028C23.2734 36.395 23.0293 36.3558 22.7852 36.395V41.1895C22.8535 41.1895 22.9316 41.1797 23 41.1797C24.0547 41.1797 25.0605 41.3954 25.9688 41.7974Z" fill="white"/>
<path d="M21.5937 30.5808C21.4863 32.1692 20.4999 33.3751 19.8456 34.0124C19.4746 34.3654 19.2988 34.8851 19.3476 35.3949L20.0312 41.7974C20.9394 41.3954 21.9453 41.1797 22.9999 41.1797V30.924C22.4921 30.924 22.0136 30.8063 21.5937 30.5808Z" fill="white"/>
<path d="M22.9998 41.1797V36.3754C22.8337 36.3754 22.658 36.4048 22.5017 36.4832C20.5388 37.4049 19.3474 35.3949 19.3474 35.3949L20.031 41.7974C20.9392 41.3954 21.9451 41.1797 22.9998 41.1797Z" fill="white"/>
<path d="M20.2461 26.6295C20.0313 27.0511 19.9141 27.5315 19.9141 28.0316C19.9141 29.7474 21.3008 31.1397 23.0098 31.1397C24.7187 31.1397 26.1055 29.7474 26.1055 28.0316C26.1055 27.5217 25.9883 27.0511 25.7734 26.6295C24.0742 27.6394 21.9258 27.6394 20.2461 26.6295Z" fill="white"/>
<path d="M29.0059 43.9936C27.6387 42.1503 25.4609 40.9639 23 40.9639C20.5391 40.9639 18.3613 42.1601 16.9941 43.9936H29.0059Z" fill="white"/>
<path d="M24.5723 41.1306C24.0645 41.0228 23.5371 40.9639 23 40.9639C20.5391 40.9639 18.3613 42.1601 16.9941 43.9936H24.2793C23.3711 43.2778 23.4492 41.6405 24.5723 41.1306Z" fill="white"/>
<path d="M10.959 3.61792C10.9785 8.33397 11.916 19.0995 19.3086 26.1393C21.3594 28.0904 24.6406 28.0904 26.6816 26.1393C34.0742 19.0995 35.0117 8.33397 35.041 3.61792H10.959Z" fill="white"/>
<path d="M18.0681 11.246C17.697 8.47124 19.8357 6.00046 22.6287 6.00046H34.9626C35.0212 5.09843 35.0408 4.29444 35.0505 3.61792H10.9587C10.9587 3.61792 10.9587 3.61792 10.949 3.61792C10.9783 8.33397 11.9158 19.0995 19.3083 26.1393C20.8123 27.5708 22.9802 27.9532 24.8357 27.2766C20.4509 22.3743 18.7126 16.0993 18.0681 11.246Z" fill="white"/>
<path d="M35.041 3.83358H10.959C10.1582 3.83358 9.51367 3.18647 9.51367 2.38249C9.51367 1.57851 10.1582 0.931396 10.959 0.931396H35.041C35.8418 0.931396 36.4863 1.57851 36.4863 2.38249C36.4863 3.18647 35.8418 3.83358 35.041 3.83358Z" fill="white"/>
<path d="M17.9609 2.38249C17.9609 1.57851 18.6055 0.931396 19.4063 0.931396H10.959C10.1582 0.931396 9.51367 1.57851 9.51367 2.38249C9.51367 3.18647 10.1582 3.83358 10.959 3.83358H19.4063C18.6055 3.83358 17.9609 3.18647 17.9609 2.38249Z" fill="white"/>
<path d="M15.9101 28.1885C15.412 27.8649 15.2656 27.208 15.5781 26.708C16.2226 25.6883 15.4609 24.2568 14.1718 24.2568C14.1523 24.2568 14.1425 24.2568 14.123 24.2568H14.0937C13.0781 24.2862 12.0722 23.8842 11.3398 23.1587C3.37103 15.2365 1.01752 7.85354 0.324157 4.15717C-0.076234 2.03936 1.5058 0.0588123 3.65423 -1.58509e-05C5.38275 -0.0490393 6.89642 1.20596 7.18939 2.91198L7.20892 3.00022C7.40423 4.08854 8.3808 4.88272 9.49408 4.8533L10.7441 4.81409C11.33 4.80428 11.8281 5.2651 11.8476 5.86319C11.8671 6.46127 11.3984 6.95151 10.8027 6.97112L9.55267 7.01034C7.39447 7.06916 5.47064 5.51022 5.09955 3.3826L5.08002 3.28455C4.96283 2.61784 4.38666 2.13741 3.71283 2.15702C2.86322 2.17662 2.27728 2.961 2.42377 3.76498C3.0683 7.20643 5.28509 14.1187 12.8535 21.6291C13.166 21.9429 13.6054 22.1194 14.0449 22.0998H14.0742C17.1406 22.0115 18.9472 25.4039 17.3945 27.8551C17.0722 28.3649 16.4081 28.512 15.9101 28.1885Z" fill="white"/>
<path d="M30.5977 43.7779H15.4023C14.6992 43.7779 14.1133 44.3564 14.1133 45.0721V48.4939C14.7969 48.7685 15.5 49.0136 16.2227 49.2293H29.7773C30.4902 49.0136 31.1934 48.7685 31.8867 48.4939V45.0721C31.8867 44.3564 31.3105 43.7779 30.5977 43.7779Z" fill="white"/>
<path d="M14.1133 45.0721V48.4939C14.7969 48.7685 15.5 49.0136 16.2227 49.2293H22.7949V48.592C22.7949 48.0821 23.1172 47.7194 23.3906 47.5037C23.5566 47.3762 23.6055 47.1311 23.5078 46.9448C23.2734 46.4938 23.4687 46.082 23.6348 45.8565C23.7324 45.729 23.7422 45.5623 23.6738 45.4153C23.3906 44.778 23.625 44.3466 23.8984 44.0916C23.9863 44.0034 24.0352 43.8955 24.0352 43.7779H15.4023C14.6895 43.7779 14.1133 44.3564 14.1133 45.0721Z" fill="white"/>
<path d="M28.332 46.4644H17.668C17.2383 46.4644 16.8965 46.8076 16.8965 47.239V49.4058C18.8398 49.9157 20.8906 50.2 23 50.2C25.1094 50.2 27.1504 49.9255 29.1035 49.4058V47.239C29.1035 46.8174 28.752 46.4644 28.332 46.4644Z" fill="white"/>
<path d="M23.3809 47.5037C23.5469 47.3763 23.5957 47.1311 23.498 46.9448C23.4102 46.7782 23.3809 46.6115 23.3906 46.4644H17.6582C17.2285 46.4644 16.8867 46.8076 16.8867 47.239V49.4058C18.7715 49.9059 20.7441 50.1804 22.7754 50.1902V48.5822C22.7852 48.0724 23.1172 47.7096 23.3809 47.5037Z" fill="white"/>
<path d="M28.332 45.6604H17.668C16.7988 45.6604 16.0957 46.3663 16.0957 47.239V49.1803C16.623 49.3372 17.1602 49.4842 17.6973 49.6019V47.2684H28.293V49.6117C28.8398 49.4842 29.3672 49.347 29.8945 49.1901V47.2488C29.9043 46.3663 29.2012 45.6604 28.332 45.6604Z" fill="white"/>
<path d="M23.5078 46.9448C23.2734 46.4938 23.4687 46.082 23.6348 45.8565C23.6738 45.7977 23.7031 45.729 23.7129 45.6604H17.6777C16.8086 45.6604 16.1055 46.3663 16.1055 47.239V49.1803C16.6328 49.3372 17.1699 49.4842 17.707 49.6019V47.2684H23.5371C23.5664 47.1703 23.5566 47.0527 23.5078 46.9448Z" fill="white"/>
<path d="M24.7249 29.1801C24.7666 28.5913 24.325 28.0801 23.7386 28.0383C23.1522 27.9964 22.643 28.4398 22.6013 29.0286C22.5597 29.6173 23.0013 30.1285 23.5877 30.1704C24.1741 30.2122 24.6832 29.7688 24.7249 29.1801Z" fill="white"/>
<path d="M25.0117 12.9912C25.5996 12.9912 26.0762 12.5127 26.0762 11.9225C26.0762 11.3322 25.5996 10.8538 25.0117 10.8538C24.4238 10.8538 23.9473 11.3322 23.9473 11.9225C23.9473 12.5127 24.4238 12.9912 25.0117 12.9912Z" fill="white"/>
<path d="M28.5664 11.5891C29.6235 11.5891 30.4805 10.7287 30.4805 9.66738C30.4805 8.60605 29.6235 7.74567 28.5664 7.74567C27.5093 7.74567 26.6523 8.60605 26.6523 9.66738C26.6523 10.7287 27.5093 11.5891 28.5664 11.5891Z" fill="white"/>
<path d="M3.33203 1.76483C3.33203 1.94131 3.30273 2.09819 3.24414 2.25506C3.39062 2.19623 3.54688 2.15701 3.71289 2.15701C4.38672 2.13741 4.96289 2.62764 5.08008 3.28455L5.09961 3.3826C5.4707 5.51022 7.39453 7.06916 9.55274 7.01033L10.8027 6.97111C11.3984 6.9515 11.8574 6.46127 11.8477 5.86318C11.8281 5.2651 11.3398 4.80428 10.7441 4.81408L9.49414 4.8533C8.38086 4.88272 7.4043 4.08854 7.20898 3.00022L7.18945 2.91198C6.89648 1.20596 5.38281 -0.0490393 3.6543 -1.58513e-05C3.08789 0.0195935 2.56055 0.166664 2.0918 0.421586C2.78516 0.470609 3.33203 1.04909 3.33203 1.76483Z" fill="white"/>
<path d="M30.0897 28.1885C30.5877 27.8649 30.7342 27.208 30.4217 26.708C29.7772 25.6883 30.5389 24.2568 31.828 24.2568C31.8475 24.2568 31.8573 24.2568 31.8768 24.2568H31.9061C32.9217 24.2862 33.9276 23.8842 34.66 23.1587C42.6288 15.2365 44.9823 7.85354 45.6756 4.15717C46.076 2.03936 44.494 0.0588123 42.3456 -1.58509e-05C40.617 -0.0490393 39.1034 1.20596 38.8104 2.91198L38.7909 3.00022C38.5956 4.08854 37.619 4.88272 36.5057 4.8533L35.2557 4.81409C34.6698 4.80428 34.1717 5.2651 34.1522 5.86319C34.1327 6.46127 34.6014 6.95151 35.1971 6.97112L36.4471 7.01034C38.6053 7.06916 40.5291 5.51022 40.9002 3.3826L40.9198 3.28455C41.037 2.61784 41.6131 2.13741 42.287 2.15702C43.1366 2.17662 43.7225 2.961 43.576 3.76498C42.9315 7.21623 40.7147 14.1187 33.1463 21.6291C32.8338 21.9429 32.3944 22.1194 31.9549 22.0998H31.9256C28.8592 22.0115 27.0526 25.4039 28.6053 27.8551C28.9276 28.3649 29.5917 28.512 30.0897 28.1885Z" fill="white"/>
<path d="M42.6679 1.76483C42.6679 1.94131 42.6972 2.09819 42.7558 2.25506C42.6093 2.19623 42.453 2.15701 42.287 2.15701C41.6132 2.13741 41.037 2.62764 40.9198 3.28455L40.9003 3.3826C40.5292 5.51022 38.6054 7.06916 36.4472 7.01033L35.1972 6.97111C34.6015 6.9515 34.1425 6.46127 34.1523 5.86318C34.1718 5.2651 34.6601 4.80428 35.2558 4.81408L36.5058 4.8533C37.619 4.88272 38.5956 4.08854 38.7909 3.00022L38.8105 2.91198C39.1034 1.20596 40.6171 -0.0490393 42.3456 -1.58513e-05C42.912 0.0195935 43.4394 0.166664 43.9081 0.421586C43.2148 0.470609 42.6679 1.04909 42.6679 1.76483Z" fill="white"/>
</svg>
