<svg xmlns="http://www.w3.org/2000/svg" xmlns:xlink="http://www.w3.org/1999/xlink" aria-hidden="true" role="img" class="iconify iconify--ph" width="32" height="32" preserveAspectRatio="xMidYMid meet" viewBox="0 0 256 256"><path d="M128 60a68 68 0 1 0 68 68a68.1 68.1 0 0 0-68-68zm0 120a52 52 0 1 1 52-52a52 52 0 0 1-52 52zm-8-144V16a8 8 0 0 1 16 0v20a8 8 0 0 1-16 0zM43.1 54.5a8.1 8.1 0 1 1 11.4-11.4l14.1 14.2a8 8 0 0 1 0 11.3a8.1 8.1 0 0 1-11.3 0zM36 136H16a8 8 0 0 1 0-16h20a8 8 0 0 1 0 16zm32.6 51.4a8 8 0 0 1 0 11.3l-14.1 14.2a8.3 8.3 0 0 1-5.7 2.3a8.5 8.5 0 0 1-5.7-2.3a8.1 8.1 0 0 1 0-11.4l14.2-14.1a8 8 0 0 1 11.3 0zM136 220v20a8 8 0 0 1-16 0v-20a8 8 0 0 1 16 0zm76.9-18.5a8.1 8.1 0 0 1 0 11.4a8.5 8.5 0 0 1-5.7 2.3a8.3 8.3 0 0 1-5.7-2.3l-14.1-14.2a8 8 0 0 1 11.3-11.3zM248 128a8 8 0 0 1-8 8h-20a8 8 0 0 1 0-16h20a8 8 0 0 1 8 8zm-60.6-59.4a8 8 0 0 1 0-11.3l14.1-14.2a8.1 8.1 0 0 1 11.4 11.4l-14.2 14.1a8.1 8.1 0 0 1-11.3 0z" fill="#383838"></path></svg>